<svg width="1231" height="218" viewBox="0 0 1231 218" fill="none" xmlns="http://www.w3.org/2000/svg">
<path d="M0.900001 214V3.99999H41.1L165 155.2H145.5V3.99999H193.5V214H153.6L29.4 62.8H48.9V214H0.900001ZM287.885 88.6H388.985V126.4H287.885V88.6ZM291.485 175H405.785V214H243.185V3.99999H401.885V43H291.485V175ZM491.925 214L423.225 3.99999H473.625L533.325 190H508.125L570.525 3.99999H615.525L675.525 190H651.225L712.425 3.99999H758.925L690.225 214H638.025L584.925 50.8H598.725L544.125 214H491.925ZM786.056 214V3.99999H826.256L915.656 152.2H894.356L982.256 3.99999H1022.16L1022.76 214H977.156L976.856 73.9H985.256L915.056 191.8H893.156L821.456 73.9H831.656V214H786.056ZM1141.58 217.6C1124.78 217.6 1108.68 215.4 1093.28 211C1077.88 206.4 1065.48 200.5 1056.08 193.3L1072.58 156.7C1081.58 163.1 1092.18 168.4 1104.38 172.6C1116.78 176.6 1129.28 178.6 1141.88 178.6C1151.48 178.6 1159.18 177.7 1164.98 175.9C1170.98 173.9 1175.38 171.2 1178.18 167.8C1180.98 164.4 1182.38 160.5 1182.38 156.1C1182.38 150.5 1180.18 146.1 1175.78 142.9C1171.38 139.5 1165.58 136.8 1158.38 134.8C1151.18 132.6 1143.18 130.6 1134.38 128.8C1125.78 126.8 1117.08 124.4 1108.28 121.6C1099.68 118.8 1091.78 115.2 1084.58 110.8C1077.38 106.4 1071.48 100.6 1066.88 93.4C1062.48 86.2 1060.28 77 1060.28 65.8C1060.28 53.8 1063.48 42.9 1069.88 33.1C1076.48 23.1 1086.28 15.2 1099.28 9.39999C1112.48 3.39999 1128.98 0.399996 1148.78 0.399996C1161.98 0.399996 1174.98 1.99999 1187.78 5.19999C1200.58 8.19999 1211.88 12.8 1221.68 19L1206.68 55.9C1196.88 50.3 1187.08 46.2 1177.28 43.6C1167.48 40.8 1157.88 39.4 1148.48 39.4C1139.08 39.4 1131.38 40.5 1125.38 42.7C1119.38 44.9 1115.08 47.8 1112.48 51.4C1109.88 54.8 1108.58 58.8 1108.58 63.4C1108.58 68.8 1110.78 73.2 1115.18 76.6C1119.58 79.8 1125.38 82.4 1132.58 84.4C1139.78 86.4 1147.68 88.4 1156.28 90.4C1165.08 92.4 1173.78 94.7 1182.38 97.3C1191.18 99.9 1199.18 103.4 1206.38 107.8C1213.58 112.2 1219.38 118 1223.78 125.2C1228.38 132.4 1230.68 141.5 1230.68 152.5C1230.68 164.3 1227.38 175.1 1220.78 184.9C1214.18 194.7 1204.28 202.6 1191.08 208.6C1178.08 214.6 1161.58 217.6 1141.58 217.6Z" fill="url(#paint0_linear_15_8)"/>
<path d="M0.900001 214V3.99999H41.1L165 155.2H145.5V3.99999H193.5V214H153.6L29.4 62.8H48.9V214H0.900001ZM287.885 88.6H388.985V126.4H287.885V88.6ZM291.485 175H405.785V214H243.185V3.99999H401.885V43H291.485V175ZM491.925 214L423.225 3.99999H473.625L533.325 190H508.125L570.525 3.99999H615.525L675.525 190H651.225L712.425 3.99999H758.925L690.225 214H638.025L584.925 50.8H598.725L544.125 214H491.925ZM786.056 214V3.99999H826.256L915.656 152.2H894.356L982.256 3.99999H1022.16L1022.76 214H977.156L976.856 73.9H985.256L915.056 191.8H893.156L821.456 73.9H831.656V214H786.056ZM1141.58 217.6C1124.78 217.6 1108.68 215.4 1093.28 211C1077.88 206.4 1065.48 200.5 1056.08 193.3L1072.58 156.7C1081.58 163.1 1092.18 168.4 1104.38 172.6C1116.78 176.6 1129.28 178.6 1141.88 178.6C1151.48 178.6 1159.18 177.7 1164.98 175.9C1170.98 173.9 1175.38 171.2 1178.18 167.8C1180.98 164.4 1182.38 160.5 1182.38 156.1C1182.38 150.5 1180.18 146.1 1175.78 142.9C1171.38 139.5 1165.58 136.8 1158.38 134.8C1151.18 132.6 1143.18 130.6 1134.38 128.8C1125.78 126.8 1117.08 124.4 1108.28 121.6C1099.68 118.8 1091.78 115.2 1084.58 110.8C1077.38 106.4 1071.48 100.6 1066.88 93.4C1062.48 86.2 1060.28 77 1060.28 65.8C1060.28 53.8 1063.48 42.9 1069.88 33.1C1076.48 23.1 1086.28 15.2 1099.28 9.39999C1112.48 3.39999 1128.98 0.399996 1148.78 0.399996C1161.98 0.399996 1174.98 1.99999 1187.78 5.19999C1200.58 8.19999 1211.88 12.8 1221.68 19L1206.68 55.9C1196.88 50.3 1187.08 46.2 1177.28 43.6C1167.48 40.8 1157.88 39.4 1148.48 39.4C1139.08 39.4 1131.38 40.5 1125.38 42.7C1119.38 44.9 1115.08 47.8 1112.48 51.4C1109.88 54.8 1108.58 58.8 1108.58 63.4C1108.58 68.8 1110.78 73.2 1115.18 76.6C1119.58 79.8 1125.38 82.4 1132.58 84.4C1139.78 86.4 1147.68 88.4 1156.28 90.4C1165.08 92.4 1173.78 94.7 1182.38 97.3C1191.18 99.9 1199.18 103.4 1206.38 107.8C1213.58 112.2 1219.38 118 1223.78 125.2C1228.38 132.4 1230.68 141.5 1230.68 152.5C1230.68 164.3 1227.38 175.1 1220.78 184.9C1214.18 194.7 1204.28 202.6 1191.08 208.6C1178.08 214.6 1161.58 217.6 1141.58 217.6Z" fill="url(#paint1_linear_15_8)"/>
<defs>
<linearGradient id="paint0_linear_15_8" x1="47" y1="2.733" x2="642.989" y2="400.403" gradientUnits="userSpaceOnUse">
<stop stop-color="#E4CF0C"/>
<stop offset="1" stop-color="#E4CF0C" stop-opacity="0"/>
</linearGradient>
<linearGradient id="paint1_linear_15_8" x1="748.096" y1="270" x2="7.88518" y2="-74.2257" gradientUnits="userSpaceOnUse">
<stop stop-color="#7158E2"/>
<stop offset="1" stop-color="#CD84F1"/>
</linearGradient>
</defs>
</svg>
